<svg width="128" height="128" viewBox="0 0 128 128" xmlns="http://www.w3.org/2000/svg" fill="none" role="img" aria-label="Agent avatar concept three">
  <defs>
    <linearGradient id="catA" x1="24" y1="20" x2="102" y2="110" gradientUnits="userSpaceOnUse">
      <stop offset="0" stop-color="#22C55E"/>
      <stop offset="1" stop-color="#14B8A6"/>
    </linearGradient>
    <linearGradient id="catB" x1="38" y1="42" x2="90" y2="90" gradientUnits="userSpaceOnUse">
      <stop offset="0" stop-color="#ECFEFF"/>
      <stop offset="1" stop-color="#CCFBF1"/>
    </linearGradient>
  </defs>
  <circle cx="64" cy="64" r="54" fill="#101828"/>
  <path d="M33 42l10-22 18 18H33zm62 0H67l18-18 10 22z" fill="url(#catA)"/>
  <path d="M30 54c0-14 12-26 26-26h16c14 0 26 12 26 26v22c0 20-16 36-36 36h-4c-20 0-36-16-36-36V54z" fill="url(#catA)"/>
  <path d="M44 62c5-5 10-8 20-8s15 3 20 8c-2 13-10 22-20 22s-18-9-20-22z" fill="url(#catB)"/>
  <circle cx="50" cy="69" r="4" fill="#101828"/>
  <circle cx="78" cy="69" r="4" fill="#101828"/>
  <path d="M64 80l6 5h-12l6-5z" fill="#101828"/>
  <path d="M36 74h10M82 74h10M34 84l12-3M82 81l12 3" stroke="#D1FAE5" stroke-width="3" stroke-linecap="round"/>
</svg>
